<?xml version="1.0" encoding="utf-8"?>
<!-- Generator: Adobe Illustrator 15.1.0, SVG Export Plug-In . SVG Version: 6.00 Build 0)  -->
<!DOCTYPE svg PUBLIC "-//W3C//DTD SVG 1.1//EN" "http://www.w3.org/Graphics/SVG/1.1/DTD/svg11.dtd">
<svg version="1.1" id="Layer_1" xmlns="http://www.w3.org/2000/svg" xmlns:xlink="http://www.w3.org/1999/xlink" x="0px" y="0px"
	 width="100px" height="47.084px" viewBox="0 0 100 47.084" enable-background="new 0 0 100 47.084" xml:space="preserve">
<path fill="#010101" d="M76.459,0C65.343,0,55.149,10.439,50,16.753C44.85,10.439,34.657,0,23.541,0C10.56,0,0,10.561,0,23.542
	s10.56,23.542,23.541,23.542C34.657,47.084,44.85,36.645,50,30.33c5.148,6.314,15.342,16.754,26.459,16.754
	c12.98,0,23.541-10.561,23.541-23.542S89.439,0,76.459,0z M23.541,38.909c-8.473,0-15.367-6.895-15.367-15.367
	c0-8.474,6.894-15.368,15.367-15.368c7.895,0,16.97,9.623,21.403,15.368C40.51,29.289,31.436,38.909,23.541,38.909z M76.459,38.909
	c-7.897,0-16.975-9.627-21.406-15.372c4.423-5.746,13.482-15.365,21.406-15.365c8.474,0,15.366,6.894,15.366,15.368
	C91.825,32.015,84.933,38.909,76.459,38.909z"/>
</svg>
