<svg xmlns="http://www.w3.org/2000/svg" width="100" height="87.978" viewBox="12.5 18.511 100 87.978" enable-background="new 12.5 18.511 100 87.978"><path d="M62.289 18.522c-.422.049-.814.24-1.113.542l-48.134 48.135c-.728.734-.721 1.92.014 2.647.349.345.819.539 1.31.541h10.168v34.236c.003 1.028.836 1.861 1.865 1.865h72.203c1.028-.004 1.861-.837 1.865-1.865v-34.235h10.168c1.034-.004 1.869-.845 1.865-1.879-.002-.491-.196-.961-.541-1.31l-11.733-11.733v-16.065c-.003-1.028-.837-1.861-1.865-1.865h-7.942c-1.028.004-1.861.837-1.865 1.865v4.392l-24.73-24.729c-.402-.405-.968-.605-1.535-.542z"/></svg>